<mxfile host="app.diagrams.net" modified="2022-04-04T12:57:25.351Z" agent="5.0 (Windows NT 10.0; WOW64) AppleWebKit/537.36 (KHTML, like Gecko) Chrome/100.0.4896.60 Safari/537.36" etag="btv6OiwKWDJ-foPg4nT1" version="17.4.0" type="github">
  <diagram id="1gicyLAdaJrF_YQOs0r6" name="Page-1">
    <mxGraphModel dx="1422" dy="754" grid="1" gridSize="10" guides="1" tooltips="1" connect="1" arrows="1" fold="1" page="1" pageScale="1" pageWidth="827" pageHeight="1169" math="0" shadow="0">
      <root>
        <mxCell id="0" />
        <mxCell id="1" parent="0" />
        <mxCell id="vG19I9Uy44UnKp6bqrY8-3" value="" style="edgeStyle=orthogonalEdgeStyle;rounded=0;orthogonalLoop=1;jettySize=auto;html=1;" edge="1" parent="1" source="vG19I9Uy44UnKp6bqrY8-1" target="vG19I9Uy44UnKp6bqrY8-2">
          <mxGeometry relative="1" as="geometry" />
        </mxCell>
        <mxCell id="vG19I9Uy44UnKp6bqrY8-1" value="Begin" style="ellipse;whiteSpace=wrap;html=1;" vertex="1" parent="1">
          <mxGeometry x="354" y="30" width="120" height="80" as="geometry" />
        </mxCell>
        <mxCell id="vG19I9Uy44UnKp6bqrY8-5" value="" style="edgeStyle=orthogonalEdgeStyle;rounded=0;orthogonalLoop=1;jettySize=auto;html=1;" edge="1" parent="1" source="vG19I9Uy44UnKp6bqrY8-2" target="vG19I9Uy44UnKp6bqrY8-4">
          <mxGeometry relative="1" as="geometry" />
        </mxCell>
        <mxCell id="vG19I9Uy44UnKp6bqrY8-2" value="input usd" style="shape=parallelogram;perimeter=parallelogramPerimeter;whiteSpace=wrap;html=1;fixedSize=1;" vertex="1" parent="1">
          <mxGeometry x="354" y="200" width="120" height="60" as="geometry" />
        </mxCell>
        <mxCell id="vG19I9Uy44UnKp6bqrY8-9" value="" style="edgeStyle=orthogonalEdgeStyle;rounded=0;orthogonalLoop=1;jettySize=auto;html=1;" edge="1" parent="1" source="vG19I9Uy44UnKp6bqrY8-4" target="vG19I9Uy44UnKp6bqrY8-8">
          <mxGeometry relative="1" as="geometry" />
        </mxCell>
        <mxCell id="vG19I9Uy44UnKp6bqrY8-4" value="vnd = usd * 23000" style="rounded=1;whiteSpace=wrap;html=1;" vertex="1" parent="1">
          <mxGeometry x="354" y="340" width="120" height="60" as="geometry" />
        </mxCell>
        <mxCell id="vG19I9Uy44UnKp6bqrY8-11" value="" style="edgeStyle=orthogonalEdgeStyle;rounded=0;orthogonalLoop=1;jettySize=auto;html=1;" edge="1" parent="1" source="vG19I9Uy44UnKp6bqrY8-8" target="vG19I9Uy44UnKp6bqrY8-10">
          <mxGeometry relative="1" as="geometry" />
        </mxCell>
        <mxCell id="vG19I9Uy44UnKp6bqrY8-8" value="display vnd" style="shape=parallelogram;perimeter=parallelogramPerimeter;whiteSpace=wrap;html=1;fixedSize=1;rounded=1;" vertex="1" parent="1">
          <mxGeometry x="354" y="480" width="120" height="60" as="geometry" />
        </mxCell>
        <mxCell id="vG19I9Uy44UnKp6bqrY8-10" value="end" style="ellipse;whiteSpace=wrap;html=1;rounded=1;" vertex="1" parent="1">
          <mxGeometry x="354" y="620" width="120" height="60" as="geometry" />
        </mxCell>
      </root>
    </mxGraphModel>
  </diagram>
</mxfile>
